<?xml version="1.0" standalone="no"?>
<!DOCTYPE svg PUBLIC "-//W3C//DTD SVG 20010904//EN"
 "http://www.w3.org/TR/2001/REC-SVG-20010904/DTD/svg10.dtd">
<svg version="1.0" xmlns="http://www.w3.org/2000/svg"
 width="260.000000pt" height="260.000000pt" viewBox="0 0 260.000000 260.000000"
 preserveAspectRatio="xMidYMid meet">
<metadata>
Created by potrace 1.14, written by Peter Selinger 2001-2017
</metadata>
<g transform="translate(0.000000,260.000000) scale(0.100000,-0.100000)"
fill="#000000" stroke="none">
<path d="M1226 2423 c-6 -6 -59 -15 -93 -17 -17 0 -29 -4 -27 -7 4 -6 -53 -23
-68 -20 -5 0 -8 -3 -8 -9 0 -5 -9 -10 -20 -10 -11 0 -20 -4 -20 -9 0 -5 -10
-13 -22 -17 -13 -3 -31 -13 -40 -22 -10 -8 -18 -12 -18 -9 0 3 -17 -9 -37 -28
-20 -19 -42 -31 -47 -28 -6 4 -8 3 -5 -1 4 -4 -11 -26 -33 -49 -22 -23 -47
-54 -56 -70 -9 -15 -22 -25 -30 -22 -8 3 -10 0 -6 -6 7 -12 -14 -57 -36 -77
-8 -8 -10 -11 -3 -8 6 4 3 -10 -7 -31 -10 -21 -16 -41 -13 -45 2 -5 -1 -8 -6
-8 -6 0 -10 -3 -10 -7 1 -5 0 -10 -1 -13 -4 -10 -10 -46 -12 -72 -1 -16 -6
-28 -10 -28 -4 0 -4 -7 -1 -17 4 -10 2 -14 -5 -9 -6 3 -14 2 -17 -4 -4 -6 -1
-9 6 -8 10 2 14 -17 15 -72 1 -41 3 -75 4 -75 1 0 3 -9 5 -20 4 -20 4 -20 -11
-1 -8 11 -14 15 -14 9 0 -7 7 -18 15 -26 8 -8 16 -25 19 -38 2 -13 9 -36 15
-51 6 -16 8 -28 6 -28 -3 0 2 -11 11 -25 15 -24 15 -27 0 -44 -19 -20 -20 -31
-5 -31 5 0 8 4 5 9 -3 5 0 11 8 14 8 3 18 -7 26 -29 8 -19 17 -34 21 -34 4 0
14 -16 23 -35 10 -21 22 -33 28 -29 7 4 8 2 4 -4 -4 -7 -2 -12 5 -12 8 0 8 -4
-1 -15 -7 -8 -9 -15 -4 -15 5 0 2 -5 -6 -10 -12 -8 -11 -10 5 -7 11 1 26 6 32
10 9 6 11 3 7 -8 -4 -10 -2 -15 7 -13 8 2 13 -3 11 -11 -2 -8 3 -11 12 -8 9 4
23 -4 35 -18 10 -14 24 -25 29 -25 6 0 13 -4 17 -9 3 -6 -4 -9 -15 -8 -11 1
-20 5 -20 10 0 4 -5 5 -11 1 -8 -4 -7 -9 2 -15 7 -4 17 -5 22 -2 5 3 6 -5 2
-18 -6 -21 -5 -22 6 -8 15 17 54 35 44 20 -3 -5 1 -11 7 -14 10 -3 9 -8 -2
-22 -9 -11 -10 -16 -2 -11 6 4 12 3 12 -2 0 -6 7 -13 16 -16 8 -3 13 -2 10 2
-3 4 4 13 14 20 16 10 21 8 32 -7 7 -10 21 -17 31 -15 9 1 15 -2 11 -7 -3 -5
-10 -6 -16 -3 -7 4 -8 2 -4 -5 8 -13 37 -11 48 3 8 11 38 -11 38 -28 0 -7 -3
-8 -8 -1 -9 14 -53 13 -49 0 1 -5 12 -9 25 -8 15 1 20 -2 15 -10 -4 -7 2 -5
12 3 17 13 18 13 13 0 -4 -11 1 -15 17 -15 14 0 21 5 18 12 -3 7 -10 11 -15
10 -6 -1 -13 4 -15 11 -5 13 30 12 43 -1 12 -12 26 -8 18 6 -4 6 2 4 13 -5 20
-18 38 -24 29 -10 -2 4 8 8 23 7 16 0 27 -5 24 -11 -2 -6 4 -20 14 -30 10 -11
14 -14 9 -7 -14 22 3 28 19 7 15 -19 15 -19 8 1 -6 17 -5 18 9 7 11 -9 18 -10
23 -2 4 6 16 8 27 4 18 -5 19 -4 7 9 -8 8 -18 12 -24 9 -18 -11 -34 -10 -38 2
-3 8 3 12 16 11 12 -1 28 2 35 8 9 8 12 7 10 -3 -2 -7 3 -15 11 -18 10 -3 11
0 5 9 -7 12 -5 12 9 0 9 -7 17 -22 17 -32 0 -10 5 -21 12 -25 7 -4 8 -3 4 5
-4 6 -5 20 -1 30 6 19 38 23 64 7 6 -4 11 -4 10 1 -3 20 2 34 11 28 6 -4 7
-12 4 -18 -4 -7 -3 -8 2 -4 5 5 10 13 10 18 3 22 5 23 14 9 7 -11 10 -11 10
-2 0 7 4 11 9 8 10 -6 25 24 16 32 -3 3 -5 0 -5 -7 0 -8 -6 -11 -16 -7 -8 3
-13 2 -9 -3 4 -8 -10 -8 -35 -1 -10 3 46 23 63 23 12 0 16 4 12 15 -5 12 -3
13 10 2 13 -11 13 -15 3 -21 -7 -5 -9 -9 -4 -9 5 0 5 -6 0 -13 -5 -7 0 -3 11
10 17 19 23 21 34 11 10 -9 12 -9 7 -1 -8 15 30 37 46 27 7 -5 8 -3 4 5 -5 7
-15 10 -23 7 -9 -4 -12 -1 -8 7 4 6 0 4 -8 -5 -8 -10 -17 -15 -20 -11 -12 11
-7 23 9 23 8 0 13 4 10 8 -3 5 1 9 9 9 8 0 12 -4 9 -9 -3 -4 0 -8 5 -8 6 0 11
8 11 19 0 10 7 24 15 31 8 7 15 9 15 4 0 -4 12 8 26 27 15 19 24 27 21 19 -3
-10 2 -16 14 -16 14 0 16 3 6 15 -10 12 -8 13 13 6 22 -6 23 -6 8 6 -13 11
-15 18 -7 29 9 12 10 11 5 -5 -6 -19 -5 -19 7 -3 8 10 18 14 23 10 4 -4 2 1
-5 11 -12 14 -11 17 3 17 9 0 16 -4 16 -10 0 -5 5 -10 12 -10 7 0 5 7 -5 18
-17 18 -8 50 10 39 6 -4 19 0 29 9 18 14 18 15 -3 5 -19 -10 -21 -9 -18 11 3
12 10 25 17 30 7 4 9 8 5 8 -5 0 0 12 11 28 10 15 17 33 14 41 -2 8 0 11 6 8
5 -4 15 0 22 8 11 13 10 14 -6 8 -16 -6 -17 -4 -7 9 7 8 14 27 15 41 1 14 5
24 9 21 4 -2 6 16 4 41 -1 24 1 42 5 40 4 -3 6 -18 5 -35 -1 -16 1 -28 5 -25
4 3 6 23 4 46 -2 23 0 38 5 34 5 -3 13 -1 16 5 4 6 3 10 -2 9 -19 -3 -33 2
-33 12 0 5 6 7 13 3 7 -5 6 0 -3 11 -9 11 -10 16 -2 11 6 -4 12 -3 12 3 0 5
-4 12 -8 15 -10 6 -9 57 2 75 6 10 5 12 -2 7 -8 -5 -12 2 -12 18 0 14 0 27 1
29 0 1 -4 15 -10 30 -7 17 -7 26 -1 22 5 -3 1 11 -9 32 -29 58 -46 107 -43
122 2 7 -1 10 -6 7 -8 -5 -28 27 -30 47 0 5 -8 14 -18 21 -11 8 -14 18 -9 26
5 8 4 11 -2 7 -14 -9 -47 29 -37 44 4 8 3 10 -4 5 -14 -8 -52 23 -52 43 0 8
-3 12 -6 8 -3 -3 -17 6 -30 20 -13 14 -24 23 -24 19 0 -4 -13 3 -29 16 -15 14
-42 30 -60 37 -17 8 -28 17 -25 22 3 5 -2 6 -10 3 -9 -3 -16 -1 -16 6 0 6 -4
8 -10 5 -5 -3 -19 -1 -30 5 -12 6 -30 13 -41 16 -10 2 -29 6 -41 9 -13 3 -36
8 -53 11 -36 7 -184 12 -189 7z m49 -227 c17 7 29 -13 14 -22 -8 -4 -9 -3 -5
4 8 13 -6 17 -18 5 -12 -13 -35 -11 -40 2 -3 10 0 12 11 8 12 -5 14 -3 8 8 -6
11 -5 11 5 2 7 -6 18 -9 25 -7z m50 -4 c-3 -3 -11 0 -18 7 -9 10 -8 11 6 5 10
-3 15 -9 12 -12z m43 -4 c-6 -16 -21 -14 -24 4 -1 11 3 15 12 11 8 -3 13 -10
12 -15z m23 -7 c-9 -16 -8 -18 9 -14 11 3 20 1 20 -4 0 -5 7 -18 15 -29 15
-19 15 -19 8 1 -6 18 -5 18 10 6 17 -13 18 -12 21 11 0 6 9 12 19 14 9 1 15
-2 11 -7 -3 -5 2 -9 10 -9 9 0 16 -4 16 -10 0 -5 3 -9 8 -9 4 1 13 1 21 0 11
-1 11 -4 0 -17 -12 -15 -11 -16 8 -10 16 5 31 -1 57 -25 20 -17 36 -36 35 -43
0 -7 -2 -7 -6 2 -2 6 -10 9 -15 6 -7 -4 -8 -2 -4 4 5 8 1 10 -10 5 -14 -5 -14
-7 5 -18 12 -6 19 -14 16 -18 -2 -4 0 -3 7 2 14 12 51 -5 43 -20 -4 -5 -1 -9
6 -9 8 0 5 -9 -7 -22 -10 -13 -12 -17 -4 -10 8 6 21 12 30 12 12 -1 12 -2 -2
-11 -10 -5 -18 -15 -18 -22 0 -8 3 -7 9 2 13 20 42 6 34 -15 -4 -12 -3 -15 5
-10 8 5 10 2 6 -8 -4 -10 -1 -16 7 -16 8 0 6 -5 -5 -13 -15 -11 -17 -17 -7
-35 6 -12 16 -22 22 -22 6 0 3 7 -5 16 -20 19 -20 31 -1 31 8 0 12 -4 9 -9 -3
-5 0 -16 7 -24 10 -13 10 -17 -2 -25 -8 -5 -20 -7 -27 -4 -7 3 -10 0 -7 -6 4
-6 13 -8 21 -5 18 7 26 -8 28 -54 2 -23 -2 -37 -7 -33 -6 4 -7 1 -2 -8 15 -24
13 -50 -3 -44 -13 5 -13 3 -2 -11 11 -12 11 -20 2 -35 -10 -15 -9 -19 0 -20
10 0 10 -2 1 -6 -7 -2 -13 -14 -13 -24 0 -14 -4 -18 -12 -13 -9 5 -9 2 1 -9 7
-9 9 -17 4 -17 -5 0 -15 -16 -23 -35 -8 -19 -17 -35 -22 -35 -4 0 -8 -5 -8
-11 0 -16 -26 -39 -35 -31 -5 4 -5 1 -1 -5 8 -15 -69 -93 -91 -93 -9 0 -11 -5
-7 -12 4 -7 4 -10 -1 -6 -4 4 -19 -1 -33 -12 -13 -11 -28 -17 -33 -14 -5 3 -9
1 -9 -5 0 -5 -9 -8 -20 -6 -11 2 -18 0 -15 -5 6 -9 -38 -21 -92 -24 -18 -2
-36 -6 -39 -9 -4 -3 -15 -2 -25 3 -12 7 -19 6 -22 -3 -4 -8 -8 -9 -14 -2 -4 6
-24 11 -43 12 -19 1 -40 2 -47 2 -6 1 -19 8 -27 17 -12 12 -16 12 -16 2 0 -10
-2 -10 -8 0 -5 7 -19 14 -31 17 -30 6 -52 25 -44 38 3 5 1 7 -5 3 -15 -9 -62
14 -62 31 0 7 -7 13 -16 13 -8 0 -13 4 -9 9 3 5 -4 13 -16 16 -13 4 -18 12
-15 21 3 8 2 13 -3 10 -12 -8 -45 44 -44 67 1 9 -2 15 -8 12 -5 -4 -9 0 -9 9
0 8 -4 16 -8 18 -12 4 -41 98 -31 98 5 0 9 -5 9 -12 0 -6 3 -8 7 -5 3 4 -2 16
-12 27 -9 10 -15 26 -12 34 4 9 1 18 -5 22 -7 5 -5 12 7 21 18 13 18 13 -1 13
-16 0 -17 2 -4 10 8 5 10 10 4 10 -6 0 -11 7 -11 15 0 8 4 15 8 15 4 0 7 10 8
23 1 36 4 57 9 57 3 0 11 -8 19 -17 12 -16 12 -15 2 9 -7 16 -17 25 -23 21 -6
-4 -5 1 2 10 8 9 10 22 6 28 -4 7 -3 9 3 6 6 -4 14 0 17 9 4 10 13 13 28 9 18
-5 20 -4 8 4 -14 10 -7 16 15 11 6 -1 4 4 -3 12 -11 11 -14 10 -22 -2 -5 -8
-12 -11 -17 -6 -4 4 0 12 10 17 9 6 15 14 12 20 -4 5 -1 9 5 9 6 0 8 5 5 11
-4 6 2 13 14 16 11 3 18 9 15 14 -2 5 5 16 17 26 12 10 28 24 36 32 13 12 14
11 11 -5 -2 -12 3 -19 15 -19 9 0 16 5 15 10 -2 6 -6 9 -10 8 -5 -2 -8 4 -8
12 0 8 6 12 14 9 8 -3 17 0 22 7 4 7 3 10 -4 5 -6 -3 -14 -1 -18 6 -4 7 -3 10
1 5 5 -4 18 2 30 13 21 19 23 20 36 3 9 -11 10 -14 2 -9 -8 4 -13 2 -13 -6 0
-10 -2 -10 -9 1 -5 7 -11 9 -14 4 -3 -5 4 -15 16 -22 12 -8 19 -10 15 -6 -4 5
0 14 10 21 22 17 32 17 32 0 0 -8 4 -17 8 -20 4 -2 8 4 8 15 0 10 -4 19 -9 19
-4 0 -5 5 -2 10 5 8 12 7 23 -2 10 -9 13 -9 9 -1 -5 8 0 11 13 10 11 -1 20 -6
20 -12 0 -5 5 -3 10 5 5 8 10 20 10 25 0 6 -4 4 -9 -3 -6 -11 -10 -10 -15 4
-9 25 1 30 22 11 10 -10 22 -14 25 -10 4 3 7 2 7 -4 0 -6 7 -14 16 -17 14 -5
15 -4 4 9 -15 18 0 20 19 3 9 -8 11 -8 8 -2 -4 7 0 15 9 18 20 8 57 -12 48
-26 -5 -7 -2 -8 5 -4 7 5 10 10 7 13 -4 4 24 43 32 43 1 0 -2 -9 -7 -19z
m-205 -28 c-3 -4 -6 -1 -6 7 0 10 -3 10 -15 0 -8 -7 -15 -10 -15 -6 0 4 -11
-1 -24 -9 -21 -14 -24 -14 -29 -1 -4 10 -1 13 8 10 8 -3 22 1 31 10 8 9 20 14
25 11 5 -4 9 0 9 7 0 8 5 6 11 -5 6 -10 8 -21 5 -24z m251 14 c1 -11 1 -18 0
-16 -2 2 -8 11 -15 20 -9 12 -9 16 1 16 7 0 14 -9 14 -20z m29 -6 c0 -11 -4
-17 -8 -15 -4 3 -8 12 -8 20 0 8 4 14 8 14 4 0 8 -9 8 -19z m-686 -941 c0 -5
-2 -10 -4 -10 -3 0 -8 5 -11 10 -3 6 -1 10 4 10 6 0 11 -4 11 -10z m900 -154
c0 -10 -30 0 -34 11 -4 11 -1 11 14 3 11 -6 20 -12 20 -14z m-700 -1 c-7 -8
-17 -12 -23 -8 -6 4 -3 9 9 14 27 11 28 11 14 -6z m560 -42 c0 -5 -4 -14 -9
-22 -8 -12 -12 -12 -25 -2 -12 10 -16 10 -16 2 0 -7 -4 -10 -9 -6 -5 3 -12 1
-16 -5 -4 -6 -11 -8 -16 -5 -15 10 -10 24 9 24 24 0 50 6 58 14 10 9 24 9 24
0z m-206 -41 c2 -4 -4 -8 -14 -8 -10 0 -16 4 -14 8 3 4 9 8 14 8 5 0 11 -4 14
-8z"/>
<path d="M1485 2152 c4 -7 1 -21 -7 -30 -11 -15 -11 -16 3 -4 13 10 18 10 28
-1 6 -8 7 -18 3 -22 -4 -5 -2 -5 5 -1 6 3 14 2 18 -4 3 -5 12 -10 18 -10 7 0
4 5 -6 11 -15 9 -16 13 -5 27 7 9 8 14 4 10 -5 -4 -15 -3 -23 3 -7 6 -13 8
-13 3 0 -4 -7 1 -16 12 -8 10 -13 13 -9 6z"/>
<path d="M1380 2146 c0 -2 9 -6 20 -9 11 -3 18 -1 14 4 -5 9 -34 13 -34 5z"/>
<path d="M1574 2088 c-4 -7 -3 -8 4 -4 11 7 17 -6 13 -28 -1 -5 4 -4 12 2 8 7
18 8 22 4 5 -4 5 -1 1 5 -12 22 -44 35 -52 21z"/>
<path d="M1050 2080 c0 -5 5 -10 10 -10 6 0 10 5 10 10 0 6 -4 10 -10 10 -5 0
-10 -4 -10 -10z"/>
<path d="M959 2044 c-17 -21 -21 -68 -4 -54 6 5 16 6 21 2 4 -4 3 1 -4 10 -11
14 -10 18 5 27 13 7 15 13 7 21 -8 8 -15 6 -25 -6z m21 2 c0 -2 -8 -10 -17
-17 -16 -13 -17 -12 -4 4 13 16 21 21 21 13z"/>
<path d="M1610 2020 c0 -5 5 -10 11 -10 5 0 7 5 4 10 -3 6 -8 10 -11 10 -2 0
-4 -4 -4 -10z"/>
<path d="M1660 2000 c0 -5 7 -7 15 -4 8 4 15 8 15 10 0 2 -7 4 -15 4 -8 0 -15
-4 -15 -10z"/>
<path d="M1670 1980 c-9 -6 -10 -10 -3 -10 6 0 15 5 18 10 8 12 4 12 -15 0z"/>
<path d="M916 1965 c4 -8 8 -15 10 -15 2 0 4 7 4 15 0 8 -4 15 -10 15 -5 0 -7
-7 -4 -15z"/>
<path d="M1725 1929 c-4 -6 -5 -12 -2 -15 2 -3 7 2 10 11 7 17 1 20 -8 4z"/>
<path d="M876 1897 c3 -10 9 -15 12 -12 3 3 0 11 -7 18 -10 9 -11 8 -5 -6z"/>
<path d="M857 1875 c-4 -8 -3 -16 1 -19 4 -3 9 4 9 15 2 23 -3 25 -10 4z"/>
<path d="M846 1797 c3 -10 9 -15 12 -12 3 3 0 11 -7 18 -10 9 -11 8 -5 -6z"/>
<path d="M1773 1759 c-2 -23 3 -25 10 -4 4 8 3 16 -1 19 -4 3 -9 -4 -9 -15z"/>
<path d="M837 1763 c-11 -11 -8 -21 9 -27 13 -5 14 -4 6 7 -7 8 -9 17 -5 20 3
4 4 7 1 7 -2 0 -8 -3 -11 -7z"/>
<path d="M831 1647 c2 -1 13 -9 24 -17 19 -14 19 -14 6 3 -7 9 -18 17 -24 17
-6 0 -8 -1 -6 -3z"/>
<path d="M1750 1636 c0 -2 8 -10 18 -17 15 -13 16 -12 3 4 -13 16 -21 21 -21
13z"/>
<path d="M607 1979 c7 -7 15 -10 18 -7 3 3 -2 9 -12 12 -14 6 -15 5 -6 -5z"/>
<path d="M2016 1842 c-3 -5 1 -9 9 -9 8 0 12 4 9 9 -3 4 -7 8 -9 8 -2 0 -6 -4
-9 -8z"/>
<path d="M570 1559 c0 -5 5 -7 10 -4 6 3 10 8 10 11 0 2 -4 4 -10 4 -5 0 -10
-5 -10 -11z"/>
<path d="M587 1519 c7 -7 15 -10 18 -7 3 3 -2 9 -12 12 -14 6 -15 5 -6 -5z"/>
<path d="M603 1477 c-9 -18 -8 -24 2 -24 8 0 11 7 7 15 -3 10 -1 13 6 8 8 -5
10 -2 6 8 -8 21 -9 20 -21 -7z"/>
<path d="M2010 1481 c0 -6 4 -13 10 -16 6 -3 7 1 4 9 -7 18 -14 21 -14 7z"/>
<path d="M1990 1430 c-8 -15 -8 -18 3 -14 8 3 14 11 14 19 0 20 -4 19 -17 -5z"/>
<path d="M628 1423 c7 -3 16 -2 19 1 4 3 -2 6 -13 5 -11 0 -14 -3 -6 -6z"/>
<path d="M1967 1399 c7 -7 15 -10 18 -7 3 3 -2 9 -12 12 -14 6 -15 5 -6 -5z"/>
<path d="M1945 1381 c-3 -6 -3 -11 1 -11 4 0 -1 -9 -11 -20 -17 -18 -17 -20
-2 -14 9 3 17 10 17 16 0 5 4 7 9 4 5 -4 8 1 7 9 -3 21 -13 28 -21 16z"/>
<path d="M654 1359 c-4 -7 -3 -9 4 -5 5 3 13 0 15 -6 4 -9 6 -10 6 -1 1 17
-16 25 -25 12z"/>
<path d="M670 1320 c0 -5 5 -10 10 -10 6 0 10 5 10 10 0 6 -4 10 -10 10 -5 0
-10 -4 -10 -10z"/>
<path d="M699 1308 c0 -2 -2 -11 -4 -21 -3 -15 -1 -16 11 -6 7 6 11 15 8 20
-5 9 -13 12 -15 7z"/>
<path d="M1890 1286 c0 -2 7 -7 16 -10 8 -3 12 -2 9 4 -6 10 -25 14 -25 6z"/>
<path d="M700 1259 c-13 -9 -12 -10 3 -5 12 4 21 -1 27 -17 5 -12 9 -17 9 -10
1 16 -10 43 -18 43 -3 0 -13 -5 -21 -11z"/>
<path d="M1870 1219 c0 -5 5 -7 10 -4 6 3 10 8 10 11 0 2 -4 4 -10 4 -5 0 -10
-5 -10 -11z"/>
<path d="M794 1176 c-3 -8 -1 -22 4 -32 7 -13 9 -10 8 15 -1 34 -4 38 -12 17z"/>
<path d="M1850 1179 c0 -5 5 -7 10 -4 6 3 10 8 10 11 0 2 -4 4 -10 4 -5 0 -10
-5 -10 -11z"/>
<path d="M1785 1171 c-3 -5 -1 -12 4 -16 6 -3 7 -13 4 -22 -6 -15 -5 -16 9 -3
14 13 14 16 2 23 -8 5 -12 12 -9 18 4 5 4 9 1 9 -3 0 -7 -4 -11 -9z"/>
<path d="M829 1169 c0 -2 -2 -11 -4 -19 -1 -10 5 -16 16 -17 11 -1 19 2 19 6
0 9 -29 37 -31 30z"/>
<path d="M1810 1166 c0 -2 7 -7 16 -10 8 -3 12 -2 9 4 -6 10 -25 14 -25 6z"/>
<path d="M1749 1141 c-4 -29 -5 -51 -3 -51 2 0 10 13 18 28 13 25 13 29 0 29
-8 0 -14 -3 -15 -6z"/>
<path d="M1770 1099 c0 -5 5 -7 10 -4 6 3 10 8 10 11 0 2 -4 4 -10 4 -5 0 -10
-5 -10 -11z"/>
<path d="M914 1081 c4 -5 1 -12 -4 -14 -6 -3 -5 -4 2 -3 15 3 23 26 8 26 -6 0
-9 -4 -6 -9z"/>
<path d="M997 1053 c-4 -3 -7 -11 -7 -17 0 -6 5 -4 11 4 9 12 10 11 6 -7 -3
-15 -1 -20 9 -16 10 4 11 10 3 24 -11 21 -13 22 -22 12z"/>
<path d="M975 1011 c-3 -5 -2 -12 3 -15 5 -3 9 1 9 9 0 17 -3 19 -12 6z"/>
<path d="M1020 999 c0 -5 5 -7 10 -4 6 3 10 8 10 11 0 2 -4 4 -10 4 -5 0 -10
-5 -10 -11z"/>
<path d="M1192 978 c13 -12 15 -18 6 -21 -9 -4 -10 -6 -1 -6 6 -1 15 4 18 9 4
7 13 6 27 -1 16 -8 22 -8 29 2 11 19 0 32 -17 18 -10 -8 -18 -9 -27 0 -8 6
-17 8 -20 4 -4 -3 -12 -2 -20 3 -7 5 -5 2 5 -8z"/>
<path d="M1036 973 c-6 -14 -5 -15 5 -6 7 7 10 15 7 18 -3 3 -9 -2 -12 -12z"/>
<path d="M1584 962 c11 -12 17 -22 15 -23 -2 0 -16 -2 -30 -4 -14 -2 -42 -19
-62 -39 -21 -20 -42 -36 -48 -36 -5 0 -7 -4 -4 -10 3 -5 1 -10 -5 -10 -6 0
-22 -12 -35 -26 -16 -17 -25 -22 -25 -13 0 8 -6 3 -13 -10 -6 -14 -18 -26 -26
-29 -9 -3 -11 0 -6 8 5 8 4 11 -3 6 -6 -4 -8 -14 -5 -23 4 -10 2 -14 -5 -9 -6
3 -15 0 -19 -8 -7 -12 -19 -6 -60 32 -72 67 -92 82 -105 82 -6 0 -9 3 -5 6 7
8 -12 28 -35 37 -10 3 -18 13 -18 22 0 8 -3 14 -7 14 -21 -3 -44 2 -40 9 3 4
-8 7 -24 7 -16 1 -29 -2 -29 -7 0 -4 -9 -5 -20 -3 -11 2 -20 -1 -20 -7 0 -6
-9 -8 -20 -5 -11 3 -20 1 -20 -5 0 -5 -4 -6 -10 -3 -5 3 -10 1 -10 -4 0 -6 -7
-11 -15 -11 -8 0 -23 -4 -33 -9 -17 -9 -40 -17 -55 -20 -4 0 -21 -8 -37 -16
-17 -9 -30 -13 -30 -10 0 3 -10 -3 -22 -15 -16 -15 -24 -17 -29 -8 -6 9 -10 8
-15 -5 -3 -9 -11 -17 -17 -17 -13 0 -143 -66 -178 -91 -14 -10 -29 -16 -33
-12 -3 3 -6 1 -6 -5 0 -7 -6 -12 -14 -12 -8 0 -17 -7 -20 -16 -4 -9 -9 -14
-12 -11 -3 2 -17 -6 -31 -19 -14 -13 -31 -24 -37 -24 -6 0 -17 -9 -24 -20 -7
-12 -18 -18 -25 -14 -7 4 -9 4 -5 0 3 -4 -7 -21 -23 -37 -16 -16 -29 -34 -29
-40 0 -6 -4 -8 -9 -4 -5 3 -12 -4 -16 -15 -3 -11 -11 -20 -16 -20 -6 0 -7 -4
-4 -10 3 -5 2 -10 -4 -10 -6 0 -13 -11 -17 -25 -3 -14 -11 -22 -17 -18 -6 4
-7 1 -2 -7 4 -7 2 -16 -6 -21 -11 -7 -11 -9 -1 -9 10 0 10 -3 0 -14 -7 -8 -17
-11 -22 -8 -5 3 -5 -1 0 -9 11 -18 12 -32 2 -40 -5 -3 -10 -15 -13 -27 -3 -16
0 -19 13 -15 15 6 15 5 3 -10 -8 -10 -11 -20 -7 -24 3 -3 6 -1 6 5 0 7 5 12
12 12 6 0 8 -3 5 -6 -3 -4 5 -15 18 -26 26 -20 34 -48 13 -48 -6 0 -9 -2 -6
-5 9 -10 38 7 31 18 -4 6 -1 7 8 1 20 -12 111 -13 127 -1 7 6 12 6 11 1 -4
-21 2 -26 18 -13 14 12 15 12 9 0 -7 -10 -4 -12 12 -7 12 4 23 2 28 -5 4 -7 3
-9 -4 -5 -6 4 -16 -4 -22 -16 -11 -22 -10 -22 4 -4 12 15 16 16 16 5 1 -10 3
-9 11 4 5 9 8 21 5 25 -2 4 4 8 14 8 10 0 16 -4 14 -8 -6 -10 10 -11 20 -1 11
11 50 11 63 1 9 -7 13 -7 13 1 0 7 5 9 10 6 6 -3 10 -1 10 4 0 6 10 1 21 -10
17 -17 23 -19 30 -8 4 8 19 14 33 14 14 1 22 -3 20 -7 -3 -4 0 -8 5 -8 6 0 11
8 11 18 0 14 2 15 10 2 5 -8 10 -18 10 -21 0 -10 -54 -5 -62 5 -10 14 -19 2
-22 -28 -2 -14 1 -23 6 -20 5 3 7 13 4 21 -4 9 -1 13 6 10 7 -2 12 -11 10 -21
-2 -9 2 -16 8 -16 6 0 9 4 5 9 -3 5 0 13 6 17 6 3 15 1 19 -6 5 -8 9 -7 14 6
6 16 8 15 28 -2 l21 -19 -17 26 c-14 23 -15 27 -2 32 10 4 13 1 10 -8 -3 -7 4
-19 17 -26 17 -9 24 -9 27 0 2 6 8 11 13 11 6 0 8 -4 4 -9 -3 -5 -1 -13 5 -16
6 -4 10 -3 9 2 -3 19 2 27 10 14 5 -7 14 -10 20 -7 17 11 3 25 -19 21 -13 -2
-18 0 -14 7 4 7 0 7 -13 -1 -11 -6 -24 -7 -28 -3 -5 4 -5 1 -1 -5 5 -9 2 -11
-10 -6 -11 4 -13 8 -6 11 7 2 9 9 5 15 -4 7 1 6 10 -2 12 -9 17 -10 17 -2 0 7
5 9 10 6 6 -3 10 0 10 7 0 8 5 6 11 -5 9 -15 13 -16 27 -5 13 11 14 11 8 -1
-7 -10 -4 -12 12 -7 12 4 23 2 28 -5 4 -7 3 -9 -4 -5 -6 4 -16 -4 -22 -16 -11
-22 -10 -22 4 -4 12 15 16 16 16 5 1 -10 3 -9 11 4 5 9 8 21 5 25 -2 4 4 8 14
8 10 0 16 -4 14 -8 -6 -10 10 -11 20 -1 11 11 50 11 64 1 8 -7 12 -7 12 1 0 7
5 9 10 6 6 -3 10 -1 10 4 0 6 10 1 21 -10 17 -17 23 -19 30 -8 4 8 19 14 33
14 14 1 22 -3 20 -7 -3 -4 0 -8 5 -8 6 0 11 8 11 18 0 14 2 15 10 2 5 -8 10
-18 10 -21 0 -10 -54 -5 -62 5 -10 14 -19 2 -22 -28 -2 -14 1 -23 6 -20 5 3 7
13 4 21 -4 9 -1 13 6 10 7 -2 12 -11 10 -21 -2 -9 2 -16 8 -16 6 0 9 4 5 9 -3
5 0 13 6 17 6 3 15 1 19 -6 5 -8 9 -7 14 6 6 16 8 15 28 -2 l21 -19 -17 26
c-14 23 -15 27 -2 32 10 4 13 1 10 -8 -3 -7 4 -19 17 -26 17 -9 24 -9 27 0 2
6 8 11 13 11 6 0 8 -4 4 -9 -3 -5 -1 -13 5 -16 6 -4 10 -3 9 2 -3 19 2 27 10
14 5 -7 14 -10 20 -7 17 11 3 25 -19 21 -13 -2 -18 0 -14 7 4 7 0 7 -13 -1
-11 -6 -24 -7 -28 -3 -5 4 -5 1 -1 -5 5 -9 2 -11 -10 -6 -11 4 -13 8 -6 11 7
2 9 9 5 15 -4 7 1 6 10 -2 12 -9 17 -10 17 -2 0 7 5 9 10 6 6 -3 10 0 10 7 0
8 5 6 11 -5 9 -15 13 -16 27 -5 13 11 14 11 8 -1 -7 -10 -4 -12 12 -7 12 4 23
2 28 -5 4 -7 3 -9 -4 -5 -6 4 -16 -4 -22 -16 -11 -22 -10 -22 4 -4 12 15 16
16 16 5 1 -10 3 -9 11 4 5 9 8 21 5 25 -2 4 4 8 14 8 10 0 16 -4 14 -8 -6 -10
10 -11 20 -1 11 11 50 11 64 1 8 -7 12 -7 12 1 0 7 5 9 10 6 6 -3 10 -1 10 4
0 6 10 1 21 -10 17 -17 23 -19 30 -8 4 8 19 14 33 14 14 1 22 -3 20 -7 -3 -4
0 -8 5 -8 6 0 11 8 11 18 0 14 2 15 10 2 5 -8 10 -18 10 -21 0 -10 -54 -5 -62
5 -10 14 -19 2 -22 -28 -2 -14 1 -23 6 -20 5 3 7 13 4 21 -4 9 -1 13 6 10 7
-2 12 -11 10 -21 -2 -9 2 -16 8 -16 6 0 9 4 5 9 -3 5 0 13 6 17 6 3 15 1 19
-6 5 -8 9 -7 14 6 6 16 8 15 28 -2 l21 -19 -17 26 c-14 23 -15 27 -2 32 10 4
13 1 10 -8 -3 -7 4 -19 17 -26 17 -9 24 -9 27 0 2 6 8 11 13 11 6 0 8 -4 4 -9
-3 -5 -1 -13 5 -16 6 -4 10 -3 9 2 -3 19 2 27 10 14 5 -7 14 -10 20 -7 17 11
3 25 -19 21 -13 -2 -18 0 -14 7 4 7 0 7 -13 -1 -11 -6 -24 -7 -28 -3 -5 4 -5
1 -1 -5 5 -9 2 -11 -10 -6 -11 4 -13 8 -6 11 7 2 9 9 5 15 -4 7 1 6 10 -2 12
-9 17 -10 17 -2 0 7 5 9 10 6 6 -3 10 0 10 7 0 8 5 6 11 -5 9 -15 13 -16 27
-5 13 11 14 11 8 -1 -7 -10 -4 -12 12 -7 12 4 23 2 28 -5 4 -7 3 -9 -4 -5 -6
4 -16 -4 -22 -16 -11 -22 -10 -22 4 -4 12 15 16 16 16 5 1 -10 3 -9 11 4 5 9
8 21 5 25 -2 4 4 8 14 8 10 0 16 -4 14 -8 -6 -10 10 -11 20 -1 11 11 50 11 64
1 8 -7 12 -7 12 1 0 7 5 9 10 6 6 -3 10 -1 10 4 0 6 10 1 21 -10 17 -17 23
-19 30 -8 4 8 19 14 33 14 14 1 22 -3 20 -7 -9 -15 9 -8 20 8 10 13 12 13 13
-4 1 -15 -5 -19 -25 -18 -15 0 -30 5 -34 10 -10 14 -19 2 -22 -28 -2 -14 1
-23 6 -20 5 3 7 13 4 21 -4 9 -1 13 6 10 7 -2 12 -11 10 -21 -2 -9 2 -16 8
-16 5 0 9 5 7 11 -1 6 4 14 12 17 9 3 11 0 6 -9 -5 -8 0 -7 11 3 19 17 21 17
38 0 18 -16 18 -16 2 9 -15 23 -15 27 -2 32 10 4 13 1 10 -8 -4 -8 6 -20 25
-30 17 -8 31 -13 31 -9 0 4 8 0 18 -7 15 -13 16 -12 4 3 -8 10 -9 19 -3 22 5
3 12 1 14 -4 3 -6 4 -5 3 2 -2 7 -9 12 -15 10 -7 -1 -9 3 -6 9 6 8 2 8 -12 0
-11 -6 -24 -7 -28 -3 -5 4 -5 1 -1 -5 5 -9 2 -11 -10 -6 -11 4 -13 8 -6 11 7
2 9 9 5 15 -4 7 1 6 10 -2 12 -9 17 -10 17 -2 0 7 5 9 10 6 6 -3 10 0 10 7 0
7 7 2 16 -10 8 -12 20 -19 26 -16 7 4 6 9 -2 14 -7 5 0 7 18 7 26 -2 29 -5 26
-27 -3 -24 -3 -24 8 -3 6 12 17 24 25 27 9 4 11 2 7 -6 -5 -8 -2 -9 9 -5 19 7
67 -11 67 -25 0 -5 7 -2 16 6 8 9 19 14 24 11 4 -3 13 2 20 10 7 8 17 12 24 8
6 -4 5 1 -3 10 -15 19 -26 23 -15 5 5 -7 3 -8 -6 -3 -9 6 -11 4 -5 -5 6 -9 4
-11 -5 -5 -8 5 -11 4 -6 -3 3 -6 -1 -9 -11 -8 -10 2 -21 -1 -24 -5 -3 -5 -14
-3 -24 5 -18 13 -17 14 12 11 22 -2 39 5 61 26 32 30 53 40 33 15 -9 -10 -9
-16 -1 -21 6 -4 14 -4 17 -1 4 3 1 6 -6 6 -7 0 -9 5 -4 13 4 6 8 19 8 27 0 8
6 14 13 13 19 -4 14 14 -5 22 -17 6 -17 7 0 20 16 12 16 13 1 19 -16 6 -15 8
2 21 19 15 19 15 0 8 -15 -5 -18 -3 -13 10 3 9 2 17 -3 17 -5 0 -7 9 -5 20 2
11 -1 23 -7 26 -7 5 -8 2 -3 -7 5 -8 4 -11 -1 -6 -5 5 -9 12 -10 15 -3 25 -24
58 -58 92 -10 10 -15 23 -11 29 3 7 3 11 -2 10 -21 -4 -32 3 -38 21 -4 11 -11
17 -17 14 -7 -5 -9 -2 -5 8 3 10 0 15 -11 14 -10 0 -16 6 -16 16 1 11 -4 14
-13 11 -8 -3 -18 -1 -22 4 -3 6 -33 28 -66 49 -66 42 -65 42 -180 103 -44 24
-86 48 -94 54 -11 9 -13 9 -8 0 5 -8 1 -8 -17 0 -13 7 -22 16 -19 21 4 5 1 6
-5 2 -12 -7 -143 42 -154 59 -4 5 -8 7 -8 3 0 -5 -23 1 -52 12 -28 11 -54 17
-56 15 -9 -9 -32 17 -25 29 3 6 3 8 -2 4 -4 -4 -15 -2 -24 4 -10 8 -9 4 3 -10z
m-601 -279 c-6 -16 -5 -17 13 -3 10 8 16 10 12 6 -11 -13 11 -36 26 -30 8 3
16 -2 20 -11 3 -9 11 -13 16 -10 6 4 9 1 8 -7 -2 -7 2 -12 9 -11 6 2 21 -8 31
-22 11 -13 23 -21 27 -17 3 4 5 0 3 -8 -2 -8 3 -14 10 -12 8 1 11 -2 7 -8 -3
-5 -2 -10 4 -10 5 0 8 -9 6 -20 -2 -11 0 -18 6 -15 5 4 9 14 10 23 0 12 3 10
10 -6 5 -13 13 -20 19 -17 5 3 10 -1 10 -10 0 -9 5 -13 10 -10 6 3 10 1 10 -5
0 -6 4 -8 10 -5 6 3 7 -1 4 -10 -5 -12 -9 -13 -20 -4 -10 8 -14 8 -14 0 0 -6
5 -11 11 -11 8 0 8 -4 0 -14 -9 -11 -9 -16 1 -22 7 -4 10 -4 6 1 -13 14 13 37
27 25 9 -8 14 -6 18 4 4 11 1 13 -11 9 -9 -3 -14 -3 -10 1 6 7 68 16 68 10 0
-15 -14 -33 -19 -25 -4 6 -12 2 -19 -9 -7 -12 -8 -20 -2 -20 5 0 10 5 10 10 0
6 3 9 8 9 19 -3 33 2 27 11 -3 6 -2 10 4 10 6 0 8 8 4 18 -3 9 -3 14 1 10 4
-4 21 8 37 27 28 32 42 37 65 23 6 -4 10 2 10 15 -1 12 3 22 7 22 5 0 15 11
24 25 8 14 12 17 9 7 -4 -11 -2 -16 4 -12 7 4 9 -4 6 -20 -3 -15 -2 -24 2 -20
4 3 7 10 7 13 2 26 18 48 35 50 50 4 50 5 37 21 -10 12 -9 14 8 7 15 -5 17 -4
8 5 -13 13 -37 3 -28 -12 4 -5 4 -9 1 -9 -2 0 -13 -3 -23 -6 -15 -6 -16 -4 -5
7 6 7 12 17 12 23 0 5 -11 -5 -25 -24 -14 -19 -25 -29 -25 -23 0 18 40 57 60
58 23 2 40 15 20 15 -9 0 -7 5 6 15 10 8 28 14 39 14 16 -1 15 -2 -5 -8 -28
-8 -33 -29 -12 -50 7 -7 10 -21 7 -30 -5 -12 -3 -13 5 -5 9 9 9 17 0 34 -11
20 -10 22 4 17 10 -4 27 0 40 8 21 14 23 14 21 -3 0 -9 -4 -23 -9 -30 -4 -6
-2 -12 3 -12 6 0 11 5 11 11 0 5 4 8 9 4 5 -3 13 -1 16 5 4 6 2 9 -3 8 -6 -2
-11 1 -11 6 -1 6 5 11 13 12 9 1 14 -3 13 -9 -1 -7 6 -12 15 -12 10 0 23 -6
29 -12 10 -10 16 -10 26 -1 11 9 13 8 11 -3 -2 -8 3 -13 9 -12 7 2 12 0 12 -5
-3 -19 2 -25 11 -12 7 11 10 11 10 2 0 -7 5 -10 10 -7 6 3 10 2 10 -4 0 -5 -4
-13 -10 -16 -5 -3 -10 -1 -10 5 0 6 -4 9 -9 6 -5 -3 -14 1 -21 9 -7 8 -17 12
-23 8 -5 -3 -7 -1 -3 5 8 14 -21 9 -36 -6 -9 -9 -9 -12 0 -12 7 0 12 5 12 11
0 5 5 7 10 4 8 -5 7 -12 -2 -23 -10 -14 -9 -14 8 1 18 15 23 15 32 4 7 -8 9
-17 5 -21 -4 -4 1 -4 11 0 12 5 17 4 13 -3 -3 -5 0 -10 8 -10 8 0 12 4 9 9 -3
4 2 9 10 9 9 1 22 2 29 3 17 3 38 -14 31 -26 -3 -5 -13 -3 -23 6 -15 13 -18
12 -34 -17 -17 -32 -17 -32 2 -9 20 23 37 31 25 10 -5 -7 -3 -8 6 -3 10 6 12
4 7 -9 -5 -11 -3 -15 5 -10 7 5 9 2 5 -9 -6 -16 6 -17 48 -1 16 6 18 5 8 -7
-7 -7 -13 -17 -13 -23 0 -5 6 -1 14 9 14 19 11 49 -4 40 -5 -3 -12 -1 -15 5
-5 8 -11 7 -21 -1 -19 -15 -18 -2 1 17 9 9 15 11 15 4 0 -6 4 -9 9 -5 5 3 16
-4 24 -15 7 -11 18 -17 22 -12 5 4 1 -6 -10 -23 -17 -28 -17 -29 0 -15 17 14
17 13 11 -10 -6 -21 -5 -22 4 -7 6 9 9 21 5 26 -11 20 13 19 33 0 12 -11 22
-17 22 -13 0 3 7 1 15 -6 12 -10 13 -16 4 -26 -9 -11 -8 -14 0 -14 7 0 10 -4
6 -10 -3 -5 -13 -7 -23 -4 -10 4 -13 3 -6 -3 6 -4 14 -15 17 -23 4 -12 6 -11
6 3 1 10 5 16 10 12 6 -3 8 3 6 13 -2 10 1 25 6 33 7 12 9 12 10 -1 1 -8 1
-22 0 -31 -1 -9 5 -19 14 -23 13 -5 15 -1 10 17 -6 17 -5 19 5 10 19 -18 5
-43 -21 -38 -12 3 -26 2 -32 -2 -16 -9 -157 -9 -157 1 0 5 -6 3 -14 -3 -10 -9
-16 -9 -21 -1 -4 7 -11 8 -18 2 -16 -12 -47 -11 -47 1 0 5 -7 3 -17 -4 -13
-11 -17 -11 -20 -1 -3 6 -9 9 -15 6 -15 -10 -108 -11 -108 -2 0 5 -8 4 -17 -1
-23 -11 -26 -12 -63 -1 -18 5 -32 5 -36 -1 -3 -6 -13 -7 -23 -4 -29 12 -52 14
-46 4 4 -5 1 -9 -4 -9 -6 0 -11 4 -11 10 0 6 -9 6 -26 0 -31 -12 -50 -4 -35
14 8 9 7 13 -4 13 -8 0 -12 -4 -9 -8 8 -14 -20 -23 -73 -23 -40 -1 -53 3 -54
14 0 11 -2 11 -6 2 -4 -10 -8 -10 -21 0 -10 8 -13 9 -9 1 12 -20 -17 -20 -34
0 -11 15 -18 17 -23 8 -4 -6 -3 -10 2 -9 6 2 10 -1 11 -6 1 -5 -19 -9 -44 -10
-25 -1 -45 3 -45 7 0 5 -5 5 -11 2 -16 -10 -79 -12 -79 -2 0 4 -9 3 -20 -3
-14 -8 -20 -8 -20 0 0 6 -5 8 -12 4 -18 -11 -48 -12 -48 -2 0 5 -5 6 -11 2
-16 -10 -109 -12 -109 -2 0 5 -10 3 -22 -3 -13 -7 -24 -11 -25 -10 -9 8 -62
18 -58 10 4 -5 1 -9 -4 -9 -6 0 -11 4 -11 10 0 6 -9 6 -26 0 -14 -6 -30 -8
-35 -5 -18 12 -50 14 -43 4 7 -12 -28 -8 -37 5 -4 4 -15 4 -25 -2 -15 -8 -27
-6 -54 10 -19 11 -27 13 -17 5 12 -10 14 -17 8 -22 -6 -3 -11 -2 -11 2 0 5
-18 8 -39 7 -31 -1 -38 2 -34 13 3 8 9 11 12 6 3 -5 16 -10 29 -10 19 -2 21 1
12 12 -7 8 -17 12 -23 8 -6 -3 -7 -1 -3 6 4 6 13 8 19 4 7 -4 19 -8 28 -8 9 0
24 -6 33 -14 13 -11 19 -12 29 -2 9 10 9 11 -4 6 -9 -3 -22 1 -29 10 -12 15
-11 16 6 13 12 -2 18 2 16 11 -2 9 3 11 15 7 17 -6 17 -5 1 8 -10 7 -18 19
-17 27 0 9 2 10 5 2 4 -8 11 -7 24 4 10 9 17 20 15 24 -3 4 3 6 13 5 10 0 16
5 14 14 -2 8 0 12 4 7 4 -4 16 1 27 10 11 10 17 12 13 6 -4 -7 -2 -13 3 -13 6
0 11 4 11 9 0 11 26 9 37 -3 4 -4 3 -6 -2 -5 -15 4 -55 -11 -55 -22 0 -5 5 -9
10 -9 6 0 10 5 10 11 0 6 7 9 15 6 8 -4 17 -2 20 4 4 5 11 6 17 3 5 -4 3 5 -6
18 -16 24 -13 38 8 38 6 0 4 -5 -4 -10 -13 -8 -12 -10 3 -10 10 0 16 -4 13 -8
-2 -4 -1 -14 5 -22 6 -11 8 -5 5 18 -3 28 0 32 20 32 13 0 24 -6 24 -12 0 -9
4 -8 10 2 9 13 14 7 11 -12 -2 -13 6 -9 20 9 8 10 9 14 2 10 -6 -4 -14 -3 -17
1 -3 5 6 14 19 20 16 7 23 17 19 27 -6 13 5 18 32 14 4 0 11 5 15 13 7 10 9
10 9 0 0 -7 5 -10 10 -7 6 4 8 11 5 16 -3 5 2 6 11 2 10 -4 15 -2 11 3 -3 5 3
10 13 10 10 0 16 -4 14 -8 -3 -4 0 -8 5 -8 6 0 11 7 11 15 0 8 4 15 10 15 5 0
6 -8 3 -17z m687 -7 c-10 -13 -40 -12 -40 1 0 3 7 3 15 0 8 -4 17 -2 20 3 4 6
9 10 12 10 3 0 0 -6 -7 -14z m-856 -45 c3 -5 -5 -16 -19 -25 -26 -17 -39 -9
-24 14 5 10 9 11 9 3 0 -7 7 -10 16 -6 13 5 13 7 2 14 -9 6 -9 9 -1 9 6 0 14
-4 17 -9z m1165 -122 c-16 -10 -23 -4 -14 10 3 6 11 8 17 5 6 -4 5 -9 -3 -15z
m-1463 -64 c1 -8 -2 -12 -7 -9 -6 3 -15 1 -22 -5 -7 -5 -19 -6 -26 -2 -11 7
-9 11 6 20 11 5 24 7 28 3 5 -4 5 2 1 13 -6 16 -5 17 5 8 7 -7 14 -20 15 -28z
m1694 -319 c0 -3 -4 -8 -10 -11 -5 -3 -10 -1 -10 4 0 6 5 11 10 11 6 0 10 -2
10 -4z"/>
<path d="M918 659 c-10 -5 -18 -14 -18 -19 0 -6 8 -10 18 -10 13 0 14 2 3 9
-9 6 0 9 28 8 36 -1 42 -4 38 -19 -3 -10 -1 -16 4 -12 5 3 9 12 9 20 0 12 2
12 14 2 8 -7 11 -17 8 -22 -3 -5 0 -6 6 -2 7 4 12 1 12 -6 0 -10 2 -10 9 1 5
8 11 9 15 3 3 -6 2 -13 -4 -17 -5 -3 -10 -12 -10 -18 0 -7 5 -4 11 6 11 18 11
18 28 0 10 -10 17 -22 16 -28 -1 -5 0 -7 2 -2 8 14 25 7 19 -8 -3 -8 0 -14 7
-12 7 1 12 -8 11 -20 0 -12 3 -20 8 -17 15 9 8 35 -16 59 -13 13 -22 26 -20
28 3 2 -2 10 -11 17 -8 7 -15 9 -15 4 0 -4 -13 5 -30 21 -16 16 -30 25 -30 21
0 -5 -7 -2 -16 5 -21 17 -44 20 -44 6 0 -8 -4 -7 -12 1 -14 14 -18 14 -40 1z"/>
<path d="M1672 644 c-7 -8 -8 -14 -3 -14 10 0 25 19 20 25 -2 1 -10 -3 -17
-11z"/>
<path d="M861 642 c-1 -7 -6 -10 -13 -6 -7 4 -8 3 -4 -5 4 -6 3 -18 -4 -26 -8
-10 -8 -15 2 -21 7 -4 10 -3 5 1 -4 5 0 16 9 26 9 10 14 24 11 31 -4 11 -6 11
-6 0z"/>
<path d="M1747 623 c6 -16 23 -17 23 -2 0 5 6 7 13 3 6 -4 9 -3 4 1 -13 15
-46 13 -40 -2z"/>
<path d="M889 617 c6 -8 7 -18 3 -22 -4 -5 -1 -5 6 -1 10 6 10 11 1 22 -6 8
-14 14 -16 14 -3 0 0 -6 6 -13z"/>
<path d="M948 623 c7 -3 16 -2 19 1 4 3 -2 6 -13 5 -11 0 -14 -3 -6 -6z"/>
<path d="M1727 607 c-3 -8 1 -14 8 -14 7 0 11 6 8 14 -3 7 -6 13 -8 13 -2 0
-5 -6 -8 -13z"/>
<path d="M1666 602 c-3 -5 1 -9 9 -9 8 0 12 4 9 9 -3 4 -7 8 -9 8 -2 0 -6 -4
-9 -8z"/>
<path d="M1575 589 c-4 -6 -5 -12 -2 -15 2 -3 7 2 10 11 7 17 1 20 -8 4z"/>
<path d="M751 564 c0 -11 3 -14 6 -6 3 7 2 16 -1 19 -3 4 -6 -2 -5 -13z"/>
<path d="M1804 558 l-19 -23 23 19 c21 18 27 26 19 26 -2 0 -12 -10 -23 -22z"/>
<path d="M1474 554 c1 -8 6 -17 11 -21 4 -4 5 -2 1 5 -4 6 -2 12 3 12 6 0 11
4 11 8 0 5 -6 9 -14 9 -7 0 -13 -6 -12 -13z"/>
<path d="M609 524 c-7 -9 -14 -26 -16 -37 -2 -16 -1 -18 6 -8 7 11 9 11 13 0
3 -9 6 -8 11 5 4 9 3 15 -2 11 -5 -3 -12 -1 -16 5 -3 5 -2 10 3 10 6 0 12 7
16 15 7 19 2 19 -15 -1z"/>
<path d="M1394 498 c-13 -16 -24 -35 -24 -41 1 -7 6 -2 14 11 10 20 14 21 24
9 7 -7 10 -17 7 -20 -3 -4 -2 -4 3 -1 4 3 7 15 7 27 0 14 6 22 17 21 9 -1 14
4 12 11 -8 20 -34 13 -60 -17z m27 9 c-6 -8 -7 -18 -3 -22 4 -5 1 -5 -6 -1
-10 6 -10 11 -1 22 6 8 14 14 16 14 3 0 0 -6 -6 -13z"/>
<path d="M655 500 c-3 -5 -1 -10 4 -10 6 0 11 5 11 10 0 6 -2 10 -4 10 -3 0
-8 -4 -11 -10z"/>
<path d="M1190 503 c0 -6 6 -13 13 -16 9 -3 9 -7 -2 -20 -7 -10 -9 -17 -3 -17
18 0 23 33 7 49 -9 9 -15 11 -15 4z"/>
<path d="M562 488 c-15 -15 -16 -31 0 -26 6 2 12 12 14 21 3 20 2 21 -14 5z"/>
<path d="M2057 491 c10 -12 10 -18 0 -30 -8 -10 -8 -12 -1 -8 7 4 14 0 18 -8
3 -8 11 -15 18 -14 10 0 10 2 1 6 -22 8 -14 21 9 15 15 -4 19 -2 14 7 -5 7
-11 10 -14 7 -3 -4 -17 4 -31 16 -14 13 -20 16 -14 9z"/>
<path d="M1160 486 c0 -2 7 -7 16 -10 8 -3 12 -2 9 4 -6 10 -25 14 -25 6z"/>
<path d="M1356 423 c-6 -14 -5 -15 5 -6 7 7 10 15 7 18 -3 3 -9 -2 -12 -12z"/>
<path d="M540 426 c0 -2 8 -10 18 -17 15 -13 16 -12 3 4 -13 16 -21 21 -21 13z"/>
<path d="M2056 402 c-3 -5 1 -9 9 -9 8 0 12 4 9 9 -3 4 -7 8 -9 8 -2 0 -6 -4
-9 -8z"/>
<path d="M1348 393 c7 -3 16 -2 19 1 4 3 -2 6 -13 5 -11 0 -14 -3 -6 -6z"/>
<path d="M1073 955 c0 -8 4 -12 9 -9 4 3 8 9 8 15 0 5 -4 9 -8 9 -5 0 -9 -7
-9 -15z"/>
<path d="M1277 947 c-3 -8 1 -14 8 -14 7 0 11 6 8 14 -3 7 -6 13 -8 13 -2 0
-5 -6 -8 -13z"/>
<path d="M1119 933 c-13 -16 -12 -17 4 -4 9 7 17 15 17 17 0 8 -8 3 -21 -13z"/>
<path d="M1216 942 c-3 -4 4 -9 15 -9 23 -2 25 3 4 10 -8 4 -16 3 -19 -1z"/>
<path d="M103 193 c-7 -3 -13 -9 -13 -15 0 -7 5 -6 14 1 9 7 17 8 20 2 3 -5 0
-12 -6 -14 -9 -4 -10 -6 -1 -6 6 -1 14 3 17 8 8 12 -16 29 -31 24z"/>
<path d="M180 126 c-12 -19 -12 -20 4 -7 11 9 20 11 24 5 4 -6 16 -11 27 -11
11 -1 30 -3 43 -6 12 -3 20 -2 17 3 -3 5 -1 11 5 15 5 3 10 1 10 -5 0 -7 5
-10 11 -8 13 4 13 23 -1 24 -5 1 -11 2 -12 3 -2 2 -20 4 -40 6 -28 2 -38 -1
-38 -12 0 -8 -5 -11 -10 -8 -6 4 -8 10 -6 14 3 4 -1 8 -8 8 -7 0 -19 -10 -26
-21z m107 -5 c-8 -9 -12 -10 -15 -2 -2 6 -8 9 -12 6 -5 -3 -11 -2 -14 3 -2 4
8 8 24 7 23 0 26 -3 17 -14z"/>
<path d="M437 143 c-2 -4 -1 -17 4 -28 7 -18 8 -18 8 -2 1 10 6 15 12 12 6 -4
8 -13 5 -21 -5 -12 -2 -12 17 -2 12 7 26 11 30 10 5 -1 6 2 2 8 -3 5 -1 10 4
10 6 0 11 -4 11 -9 0 -11 31 -24 38 -16 3 3 -3 14 -13 25 -13 14 -22 17 -35
10 -11 -6 -21 -5 -30 3 -10 9 -14 9 -17 -1 -4 -9 -8 -10 -18 -2 -7 6 -15 7
-18 3z m57 -24 c-3 -5 -10 -7 -15 -3 -5 3 -7 10 -3 15 3 5 10 7 15 3 5 -3 7
-10 3 -15z m57 4 c13 -16 12 -17 -3 -4 -17 13 -22 21 -14 21 2 0 10 -8 17 -17z"/>
<path d="M917 143 c-2 -4 -1 -17 4 -28 7 -18 8 -18 8 -2 1 10 6 15 12 12 6 -4
8 -13 5 -21 -5 -12 -2 -12 17 -2 12 7 26 11 30 10 5 -1 6 2 2 8 -3 5 -1 10 4
10 6 0 11 -4 11 -9 0 -11 31 -24 38 -16 3 3 -3 14 -13 25 -13 14 -22 17 -35
10 -11 -6 -21 -5 -30 3 -10 9 -14 9 -17 -1 -4 -9 -8 -10 -18 -2 -7 6 -15 7
-18 3z m57 -24 c-3 -5 -10 -7 -15 -3 -5 3 -7 10 -3 15 3 5 10 7 15 3 5 -3 7
-10 3 -15z m57 4 c13 -16 12 -17 -3 -4 -10 7 -18 15 -18 17 0 8 8 3 21 -13z"/>
<path d="M1397 143 c-2 -4 -1 -17 4 -28 7 -18 8 -18 8 -2 1 10 6 15 12 12 6
-4 8 -13 5 -21 -5 -12 -2 -12 17 -2 12 7 26 11 30 10 5 -1 6 2 2 8 -3 5 -1 10
4 10 6 0 11 -4 11 -9 0 -11 31 -24 38 -16 3 3 -3 14 -13 25 -13 14 -22 17 -35
10 -11 -6 -21 -5 -30 3 -10 9 -14 9 -17 -1 -4 -9 -8 -10 -18 -2 -7 6 -15 7
-18 3z m57 -24 c-3 -5 -10 -7 -15 -3 -5 3 -7 10 -3 15 3 5 10 7 15 3 5 -3 7
-10 3 -15z m57 4 c13 -16 12 -17 -3 -4 -10 7 -18 15 -18 17 0 8 8 3 21 -13z"/>
<path d="M1877 143 c-2 -4 -1 -17 4 -28 7 -18 8 -18 8 -2 1 10 6 15 12 12 6
-4 8 -13 5 -21 -5 -12 -2 -12 17 -2 12 7 26 11 30 10 5 -1 6 2 2 8 -3 5 -1 10
4 10 6 0 11 -4 11 -9 0 -11 31 -24 38 -16 3 3 -3 14 -13 25 -13 14 -22 17 -35
10 -11 -6 -21 -5 -30 3 -10 9 -14 9 -17 -1 -4 -9 -8 -10 -18 -2 -7 6 -15 7
-18 3z m57 -24 c-3 -5 -10 -7 -15 -3 -5 3 -7 10 -3 15 3 5 10 7 15 3 5 -3 7
-10 3 -15z m57 4 c13 -16 12 -17 -3 -4 -10 7 -18 15 -18 17 0 8 8 3 21 -13z"/>
<path d="M2260 134 c-9 -10 -10 -18 -3 -25 8 -8 14 -5 22 9 13 25 -2 38 -19
16z m13 -9 c-3 -9 -8 -14 -10 -11 -3 3 -2 9 2 15 9 16 15 13 8 -4z"/>
<path d="M394 129 c-7 -11 13 -29 31 -28 6 0 4 3 -3 6 -6 2 -10 9 -7 13 3 5 1
11 -4 14 -5 4 -13 1 -17 -5z"/>
<path d="M874 129 c-7 -11 13 -29 31 -28 6 0 4 3 -3 6 -6 2 -10 9 -7 13 3 5 1
11 -4 14 -5 4 -13 1 -17 -5z"/>
<path d="M1354 129 c-7 -11 13 -29 31 -28 6 0 4 3 -3 6 -6 2 -10 9 -7 13 3 5
1 11 -4 14 -5 4 -13 1 -17 -5z"/>
<path d="M1834 129 c-7 -11 13 -29 31 -28 6 0 4 3 -3 6 -6 2 -10 9 -7 13 3 5
1 11 -4 14 -5 4 -13 1 -17 -5z"/>
<path d="M2315 129 c-10 -15 3 -25 16 -12 7 7 7 13 1 17 -6 3 -14 1 -17 -5z"/>
<path d="M2356 132 c-2 -4 -1 -14 3 -21 6 -10 10 -9 14 3 6 16 -8 32 -17 18z"/>
<path d="M2387 107 c-3 -8 1 -14 8 -14 7 0 11 6 8 14 -3 7 -6 13 -8 13 -2 0
-5 -6 -8 -13z"/>
<path d="M2335 100 c-3 -5 -1 -10 4 -10 6 0 11 5 11 10 0 6 -2 10 -4 10 -3 0
-8 -4 -11 -10z"/>
<path d="M756 87 c3 -10 9 -15 12 -12 3 3 0 11 -7 18 -10 9 -11 8 -5 -6z"/>
<path d="M1236 87 c3 -10 9 -15 12 -12 3 3 0 11 -7 18 -10 9 -11 8 -5 -6z"/>
<path d="M1716 87 c3 -10 9 -15 12 -12 3 3 0 11 -7 18 -10 9 -11 8 -5 -6z"/>
<path d="M275 80 c-3 -5 -1 -10 4 -10 6 0 11 5 11 10 0 6 -2 10 -4 10 -3 0 -8
-4 -11 -10z"/>
</g>
</svg>
